<?xml version="1.0" encoding="utf-8"?>
<!-- Generator: Adobe Illustrator 24.0.3, SVG Export Plug-In . SVG Version: 6.00 Build 0)  -->
<svg version="1.1" id="Layer_1" xmlns="http://www.w3.org/2000/svg" xmlns:xlink="http://www.w3.org/1999/xlink" x="0px" y="0px"
	 viewBox="0 0 500 500" style="enable-background:new 0 0 500 500;" xml:space="preserve">
<style type="text/css">
	.st0{fill:#FFFFFF;}
</style>
<g>
	<g>
		<path class="st0" d="M388.5,329.4c8.4,0,16.4,0,24.7,0c0-8.4,0-16.4,0-24.7c-8,0-16,0-24.7,0C388.5,313.1,388.5,321.1,388.5,329.4
			z"/>
		<path class="st0" d="M460.8,279.3c-19.3,0-38.2,0-57.1,0c-13.5,0-24.4,4-32.7,14.9c-8.7,11.6-10.2,24.4-4.7,37.8
			c5.8,13.5,16.4,21.8,31.3,22.5c21.1,0.7,42.2,0.7,62.9,0.7c1.8,0,3.6,0.4,5.5,0.4c0-25.4,0-51.3,0-76.7
			C464.1,278.9,462.3,279.3,460.8,279.3z M413.2,329.4c-8.4,0-16.4,0-24.7,0c0-8.4,0-16.4,0-24.7c8.7,0,16.7,0,24.7,0
			C413.2,313.1,413.2,321.1,413.2,329.4z"/>
	</g>
	<path class="st0" d="M285.6,152.8c-29.1-36.4-57.8-72.3-86.9-108.3c-29.1,36-57.4,72-86.9,108.3C170,152.8,227.1,152.8,285.6,152.8
		z"/>
	<path class="st0" d="M321.3,152.8c20.7,0,41.1,0,61.4,0c1.1,0,1.8-0.4,3.6-0.7c-29.1-36.4-57.8-72.3-86.5-108.3
		c-11.6,14.5-22.9,28.7-34.5,42.9c17.1,21.4,34.2,42.9,51.3,63.6C317.6,152,319.8,152.8,321.3,152.8z"/>
	<path class="st0" d="M56.6,152.4c6.5,0.7,12.4,0.4,18.9,0.7c2.9,0.4,5.1-0.7,6.5-2.9c8.7-11.3,18.2-22.5,26.9-33.8
		c3.3-4,6.5-8.7,10.2-12.7c-0.7-0.7-0.7-0.7-1.1-0.7c-20.7,0-41.8-0.4-62.2,0.7c-12,0.7-21.4,12.4-21.4,24.7
		C34.4,140,44.2,151.7,56.6,152.4z"/>
	<path class="st0" d="M417.6,150.9c0.7,0.7,1.5,1.8,2.2,1.8c6.2,0.4,12.4,0,18.5,0c0-17.1,0-33.4,0-50.2c-19.6,0-39.3,0-59.3,0
		c0.4,0.7,0.4,1.1,0.7,1.5C392.9,119.7,405.2,135.3,417.6,150.9z"/>
	<path class="st0" d="M460.8,178.2c-132.3,0-265,0-397.7,0c-9.8,0-19.3-1.8-28.7-6.9c0,1.8-0.4,2.9-0.4,4c0,72,0,144,0,215.9
		c0,32.7,21.4,58.2,53.8,64c4.4,0.7,9.1,0.7,13.8,0.7c119.2,0,238.5,0,357.7,0c1.8,0,4,0.4,5.8,0.4c0-25.4,0-51.3,0-76.7
		c-0.7,0-1.5,0.4-1.8,0.4c-22.2,0-44.7,0.4-66.9-0.4c-30.5-1.1-55.6-26.2-58.9-57.1c-2.9-29.8,17.4-59.3,46.5-66.5
		c5.5-1.5,11.6-2.2,17.4-2.2c20.4-0.4,40.7,0,61.1,0c0.7,0,1.8,0.4,2.9,0.4c0-25.4,0-51.3,0-76.7
		C464.1,177.8,462.3,178.2,460.8,178.2z M254.7,380.3h-2.2v4.4c0,7.3-5.8,13.1-13.1,13.1s-13.1-5.8-13.1-13.1v-4.4h-21.8
		c-7.3,0-13.1-5.8-13.1-13.1V253.8c0-7.3,5.8-13.1,13.1-13.1h21.8v-4.4c0-7.3,5.8-13.1,13.1-13.1s13.1,5.8,13.1,13.1v5.1
		c19.6,3.3,34.9,20.4,34.9,40.7c0,8.7-2.9,17.1-7.6,24c9.8,7.6,16.4,19.3,16.4,32.7C296.2,361.8,277.6,380.3,254.7,380.3z"/>
	<path class="st0" d="M254.7,323.6h-37.1v30.5h37.1c8.4,0,15.3-6.9,15.3-15.3C270,330.5,263.1,323.6,254.7,323.6z"/>
	<path class="st0" d="M261.3,282.2c0-8.4-6.9-15.3-15.3-15.3h-28v30.5h28.4C254.4,297.4,261.3,290.5,261.3,282.2z"/>
</g>
</svg>
