<?xml version="1.0" encoding="utf-8"?>
<!-- Generator: Adobe Illustrator 24.0.3, SVG Export Plug-In . SVG Version: 6.00 Build 0)  -->
<svg version="1.1" id="Layer_1" xmlns="http://www.w3.org/2000/svg" xmlns:xlink="http://www.w3.org/1999/xlink" x="0px" y="0px"
	 viewBox="0 0 500 500" style="enable-background:new 0 0 500 500;" xml:space="preserve">
<style type="text/css">
	.st0{fill:#FFFFFF;}
</style>
<g>
	<path class="st0" d="M291.6,244.8c5.6-7.7,8.9-17.3,8.9-27.8c0-24.1-17.6-43.8-40.4-47.5v-5.9c0-8.3-6.8-15.1-15.1-15.1
		c-8.3,0-15.4,6.8-15.4,15.1v4.9h-25.3c-8.3,0-15.1,6.8-15.1,15.1v131.7c0,8.3,6.8,15.1,15.1,15.1h25.3v4.9
		c0,8.3,6.8,15.1,15.1,15.1c8.3,0,15.1-6.8,15.1-15.1v-4.9h2.5c26.5,0,48.1-21.6,48.1-48.1C310.8,267.3,303.1,253.4,291.6,244.8z
		 M219.5,199.1h33c9.9,0,17.6,8,17.6,17.6c0,9.9-8,17.6-17.6,17.6h-33V199.1z M262.6,300.6h-43.2v-35.5h43.2c9.9,0,17.6,8,17.6,17.6
		C280.2,292.6,272.2,300.6,262.6,300.6z"/>
	<path class="st0" d="M437.3,87.7H62.4c-30.8,0-55.8,25-55.8,55.8v212.9c0,30.8,25,55.8,55.8,55.8h375.1c30.8,0,55.8-25,55.8-55.8
		V143.6C493.1,112.7,468.1,87.7,437.3,87.7z M462.6,356.4c0,13.9-11.4,25.3-25.3,25.3H62.4c-13.9,0-25.3-11.4-25.3-25.3V143.6
		c0-13.9,11.4-25.3,25.3-25.3h375.1c13.9,0,25.3,11.4,25.3,25.3v212.9H462.6z"/>
	<path class="st0" d="M133.4,148.5H82.5c-8.3,0-15.1,6.8-15.1,15.1c0,8.3,6.8,15.1,15.1,15.1h50.6c8.3,0,15.1-6.8,15.1-15.1
		C148.2,155.3,141.7,148.5,133.4,148.5z"/>
	<path class="st0" d="M417.2,321h-50.6c-8.3,0-15.1,6.8-15.1,15.1c0,8.3,6.8,15.1,15.1,15.1h50.6c8.3,0,15.1-6.8,15.1-15.1
		C432.3,327.7,425.5,321,417.2,321z"/>
</g>
</svg>
