<?xml version="1.0" encoding="utf-8"?>
<!-- Generator: Adobe Illustrator 24.0.3, SVG Export Plug-In . SVG Version: 6.00 Build 0)  -->
<svg version="1.1" id="Layer_1" xmlns="http://www.w3.org/2000/svg" xmlns:xlink="http://www.w3.org/1999/xlink" x="0px" y="0px"
	 viewBox="0 0 500 500" style="enable-background:new 0 0 500 500;" xml:space="preserve">
<style type="text/css">
	.st0{fill:#FFFFFF;}
</style>
<g>
	<g id="uf5Lun.tif_3_">
		<g>
			<path class="st0" d="M13.4,231.4c1.3-3.7,2.6-7.3,4-11c12.1-31.7,32.4-57,60.5-75.8c28.1-18.8,59.2-28,93.1-26.4
				c36.9,1.8,69.4,14.9,96.7,39.9c35.2,32.1,52,72.4,52.2,119.8c0,7.6-1.2,15.2-2.7,22.7c-2.3,12-4.6,24-9.4,35.3
				c-10.8,25.1-26.7,46.4-48.2,63.4c-31.7,25-67.9,36.1-108.2,33.1c-43.1-3.2-78.8-21.8-106.6-54.5c-26.7-31.5-39.3-68.4-37.3-110
				c0.3-5.9,1.2-11.7,1.9-17.6c0.1-0.9,0.1-1.7,0.2-2.6C10.8,242.3,12.1,236.8,13.4,231.4z M183.1,189.8
				c-41.3-11.2-92.6,14.2-104.6,65.8c-11.2,47.9,17.8,94.9,65.4,106.1c46.8,10.9,93.7-18.8,104.9-66.3
				C260.2,246.3,229.1,199.3,183.1,189.8z M59.6,278.7c-11.4,2-22.4,4-33.3,5.8c-2.6,0.4-3.3,1.8-2.9,4.3c1.5,11.8,4,23.4,7.5,34.7
				c0.5,1.5,1.2,2.9,1.8,4.4c10.1-3.1,19.9-6,29.8-9c5.2-1.6,5.2-1.7,3.9-7.1c-1.8-7.7-3.6-15.3-5.3-23
				C60.4,285.6,60.1,282.4,59.6,278.7z M92.4,352.1c-0.7,0.8-1.2,1.2-1.6,1.7c-6.3,8.7-12.6,17.4-19,26c-1.2,1.6-1.1,2.7,0.5,3.9
				c10.2,8.1,21.1,15,32.7,20.9c1.6,0.8,2.6,0.4,3.4-1.2c1.9-3.6,4-7.1,5.9-10.6c3.6-6.6,7.1-13.1,10.7-20
				C113.5,367,102.4,360.6,92.4,352.1z M122.6,179.6c4.2-1.4,8-3,12-3.8c7.8-1.6,15.6-2.9,23.4-4.2c1.4-0.2,2.7-0.2,2.3-2.3
				c-1.8-11.2-3.5-22.3-5.2-33.5c-0.2-1.4-0.9-1.9-2.3-1.6c-1.6,0.3-3.3,0.4-5,0.6c-11.4,1.4-22.6,4-33.2,8.4
				c-1.7,0.7-2.1,1.5-1.6,3.3c1.6,5.4,3,10.9,4.6,16.3C119.2,168.3,120.9,173.8,122.6,179.6z M214.9,407c-0.1-0.4-0.1-0.7-0.2-1
				c-3.1-10.6-6.2-21.2-9.4-31.9c-0.8-2.6-1.1-2.6-3.8-1.7c-5.5,1.7-11.1,3.5-16.7,4.9c-5.1,1.2-10.3,1.9-15.5,2.8
				c-1.9,0.3-2.6,1.2-2.3,3.3c1.5,9.6,2.8,19.2,4.2,28.8c0.2,1.5,0.5,2.9,0.8,4.6C187.1,416,201.2,412.7,214.9,407z M238.7,346.9
				c9.5,7,18.8,13.8,28.1,20.6c0.6,0.4,1.8,0.3,2.5-0.1c0.9-0.5,1.7-1.4,2.4-2.3c6.9-7.9,12.4-16.8,17.1-26.1c1.2-2.5,2-5.1,3-7.7
				c-10.8-5.9-21.3-11.6-31.9-17.4C254.1,325.8,247.7,337.1,238.7,346.9z M294.4,223.1c-11.1,3.4-21.8,6.7-32.4,10
				c-3,0.9-3.1,1.1-2.1,4c3.7,10.5,6.2,21.2,7,32.3c0.1,1.8,0.7,2.5,2.6,2.2c9.4-1.4,18.9-2.7,28.3-4c2-0.3,4-0.6,6.1-1
				C302.5,251.6,299.6,237.3,294.4,223.1z M87.8,203.9c-0.7-0.5-1.2-1.1-1.9-1.5c-8.1-6-16.2-12-24.3-18c-3-2.2-3.5-2.3-5.8,0.6
				c-7.8,9.8-14.5,20.3-19.7,31.7c-0.8,1.8-0.7,3,1.3,4c8.6,4.6,17.1,9.4,25.7,14.1c3.5,1.9,3.9,1.7,5.9-1.8
				c3.3-5.5,6.4-11.2,9.9-16.6C81.6,212.1,84.8,208.1,87.8,203.9z M221.7,145.9c-0.8,0.4-1.6,0.5-2,1c-0.7,0.7-1.3,1.6-1.8,2.5
				c-4.5,8.3-9,16.7-13.4,25c-2.1,4-2,4,2,6.1c9.3,4.9,18.4,10.1,26.3,17.2c1.1,0.9,2,0.9,2.9-0.1c0.7-0.7,1.3-1.4,1.9-2.1
				c6-8.1,12-16.3,18-24.4c0.9-1.3,1-2.2-0.3-3.2c-3.9-3-7.7-6.2-11.8-8.9C236.3,154.4,229.1,150.3,221.7,145.9z"/>
			<path class="st0" d="M303.1,378.6c3.5-5.7,6.8-10.8,9.8-16.1c7.2-12.5,12.5-25.8,16.9-39.4c0.8-2.5,1.9-4.9,2.6-7.4
				c0.6-2.2,1.9-2.9,4-2.9c7.9,0,15.5-1.4,23-3.6c25.9-7.5,45.3-23.2,56.2-47.8c20.8-47.1-0.1-92-33.2-111.9
				c-29-17.5-58.7-18.1-88.6-1.9c-1.9,1-3.8,2-5.6,3.3c-1.4,1-2.4,0.9-3.7-0.3c-8.8-8-17.9-15.7-28.1-21.8
				c-8.1-4.8-16.6-9.1-24.9-13.6c-1.2-0.6-2.4-1.3-3.6-1.9c-0.3-0.2-0.6-0.5-1.1-1c1.1-1.2,2.1-2.5,3.2-3.5
				c32.6-28.1,70-44,113.3-41.3c59.9,3.7,104.2,32.9,132.1,86.2c13.5,25.8,19.1,53.5,16.4,82.3c-5.5,56.8-33.1,99.9-83.3,127.6
				C381,378.9,351,384,319.6,381c-4.5-0.4-9-1.1-13.5-1.7C305.1,379.2,304.3,378.9,303.1,378.6z M271,99.4
				c4.8,11.4,9.5,22.8,14.4,34.5c11.6-6.4,23.8-10.3,36.8-12.9c-3.1-12.3-6.2-24.1-9.2-36C298.1,88.1,284.2,92.3,271,99.4z
				 M401.5,349.4c-4.7-11.2-9.4-22.2-14.2-33.6c-12,5.5-24.1,9.7-37,12.3c3.3,12.2,6.4,24.2,9.7,36.3
				C374.4,360.6,388.6,357.1,401.5,349.4z M419.2,287.3c1,0.7,1.6,1.1,2.3,1.5c8,4.7,16.1,9.4,24.1,14c5.5,3.1,5.6,3.1,9.1-2.4
				c6-9.5,10.7-19.5,14.6-30c1.2-3.1,1-4.2-2-5.5c-9.4-4-18.9-7.9-28.5-11.8c-2.4-1-3.3-0.5-4,2.1c-2.7,10.1-7.7,19.2-13.2,28
				C420.8,284.6,420.1,285.9,419.2,287.3z M364.9,121.7c-0.8,1.4,0.1,2.1,1.3,2.6c3.1,1.3,6.3,2.3,9.3,3.8
				c7.3,3.7,14.5,7.5,21.7,11.4c1.5,0.8,2.3,0.7,3.1-0.7c5.3-9.3,10.5-18.7,15.8-28c0.8-1.4,0.5-2.6-0.8-3.5c-2.5-1.7-5-3.4-7.6-5
				c-8.6-5.2-17.8-9.1-27.3-12.5c-1.5-0.5-2.4-0.5-3,1.3c-1.1,3.3-2.6,6.5-3.9,9.7C370.6,107.7,367.8,114.6,364.9,121.7z M474.6,199
				c-0.2-1.2-0.3-2.3-0.6-3.3c-2.8-9-5.5-18.1-8.5-27.1c-0.9-2.7-2.6-5.1-3.9-7.7c-0.6-1.2-1.5-1.7-2.9-1.1
				c-9.8,4-19.6,7.9-29.5,11.8c-1.6,0.6-1.9,1.5-1.3,3.1c4.4,10.5,8.3,21.2,10.7,32.4c0.4,1.9,1.3,2.4,3.2,1.9
				c9.1-2.5,18.1-4.8,27.2-7.2c1.4-0.4,2.7-1,4-1.6C473.6,200,474.1,199.4,474.6,199z"/>
			<path class="st0" d="M336.8,270.3c-0.4-4.2-0.9-8.2-1.1-12.1c0-0.8,1-1.9,1.7-2.5c3.6-3.1,5.9-6.9,5.6-11.8
				c-0.3-4.6-3-7.8-6.4-11.2c-1.3,2.5-2.4,4.6-3.7,7.2c-0.8-3.6-1.3-6.6-2-9.6c-0.5-2.2-1-4.5-1.8-6.6c-3.2-8.4-6.6-16.7-9.8-25.1
				c-0.4-1-0.4-2.5,0-3.4c2.1-4.8,4.6-9.3,8.6-12.7c5.9-5.2,12.8-6.3,20.4-4.9c6.3,1.2,6.3,1.2,9.4-4.3c0.4-0.8,0.8-1.5,1.4-2.2
				c1.1-1.4,2.5-2.1,4.2-1.2c1.5,0.8,2.4,2.2,1.8,4c-0.6,1.8-1.4,3.6-2.1,5.3c-1.3,3.1-1.1,3.8,1.8,5.6c8.1,5,12.4,19.4,8.3,28
				c-1.9,4.1-4.4,5.2-8.7,4c-3.7-1.1-5-3.4-4.8-7.7c0.2-3.3-0.1-6.6-0.4-9.9c-0.1-1-0.6-2-1.1-2.9c-1.1-2.1-2.2-2.1-3.3,0
				c-2.4,4.6-4.7,9.4-7.1,14.1c-0.7,1.4-1.2,3-2.1,4.3c-1.5,2.2-0.9,3.8,0.8,5.4c1.9,1.9,3.9,3.8,5.6,5.9c7.6,9.2,8.6,20,2.7,30.5
				C350.7,263.1,345.4,268.5,336.8,270.3z M337.9,211.3c0.3-0.1,0.5-0.2,0.5-0.3c3.4-6.4,6.7-12.8,10-19.2c0.7-1.4-0.3-1.8-1.4-2.1
				c-3.6-0.9-9.5,1.5-11.6,4.7C332.1,199.9,332.9,205.9,337.9,211.3z"/>
			<path class="st0" d="M167.6,310.5c-1.2-5.7-2.2-10.7-3.3-15.6c-0.8-4-1.8-7.9-2.6-11.9c-0.3-1.6-0.9-2.1-2.6-2.4
				c-5.1-1-10.4-1.6-15-3.6c-9.7-4.3-13.5-12.9-13.8-23c-0.3-10.1,4.3-18.1,13.2-22.6c4.6-2.3,6.4-4.7,5-9.5c-0.3-1-0.3-2.3,0.1-3.3
				c0.3-1,1.2-2.3,2-2.5c1-0.2,2.6,0.4,3.2,1.2c1,1.4,1.6,3.3,2.1,5c1.3,4.1,1.3,4,5.4,4.4c7.5,0.7,14.3,3,19.6,8.8
				c2.4,2.6,4,5.6,4.3,9.1c0.3,3.3-1.5,5.8-5.2,7.4c-2.7,1.1-4.5,0.5-6.8-2.3c-1.8-2.2-3.5-4.5-5.4-6.7c-1.9-2.2-4.6-3.3-7.8-3.4
				c0.1,1,0.2,1.9,0.4,2.8c1.4,6.5,2.8,13.1,4.2,19.6c0.5,2.2,1.5,3.3,4.2,3.6c4.3,0.4,8.5,1.3,12.7,2.4c6.3,1.6,10.3,6.2,13.2,11.7
				c6.4,11.9,4.5,29.6-10,37.7c-2.3,1.3-5.4,2.4-6.3,4.4c-0.9,2,0.4,5,0.7,7.6c0.1,0.9,0.2,1.7,0.2,2.6c0,1.7-1.1,2.8-2.6,2.9
				c-1,0-2.6-0.7-3-1.5c-1.1-2.1-1.7-4.4-2.3-6.7c-1-3.6-1.1-3.5-4.7-3.6c-11.3-0.4-20.6-4.5-26.3-14.8c-1.1-2-1.9-4.2-2.3-6.5
				c-0.7-3.4,1.3-6.8,4.3-8.3c2.6-1.2,5.4-0.5,7.9,2.3c1.3,1.5,2.4,3.2,3.5,4.8c2.8,4,6,7.4,10.7,9.2
				C165.3,310.1,166.1,310.2,167.6,310.5z M175.6,308.3c6.1-2.7,9.8-9.4,8.6-15c-1.5-7-7.1-11.6-14.9-11.6
				C170.3,290.8,172.4,299.5,175.6,308.3z M157.4,263.9c-1.7-7.8-3.4-15.6-5.1-23.5c-6.7,3.6-9.3,9-7.5,14.6
				C146.7,260.9,151.8,264.6,157.4,263.9z"/>
		</g>
	</g>
</g>
</svg>
