<?xml version="1.0" encoding="utf-8"?>
<!-- Generator: Adobe Illustrator 24.0.3, SVG Export Plug-In . SVG Version: 6.00 Build 0)  -->
<svg version="1.1" id="Layer_1" xmlns="http://www.w3.org/2000/svg" xmlns:xlink="http://www.w3.org/1999/xlink" x="0px" y="0px"
	 viewBox="0 0 500 500" style="enable-background:new 0 0 500 500;" xml:space="preserve">
<style type="text/css">
	.st0{fill:#FFFFFF;}
</style>
<g>
	<g>
		<path class="st0" d="M419.2,165.2h-76.5c5.5-3.7,10.2-7.5,13.5-10.8c19.5-19.6,19.5-51.5,0-71.1c-18.9-19-51.9-19.1-70.9,0
			c-10.5,10.5-38.3,53.3-34.4,81.9h-1.7c3.8-28.6-24-71.4-34.4-81.9c-19-19.1-52-19-70.9,0c-19.5,19.6-19.5,51.5,0,71.1
			c3.3,3.3,8,7.1,13.5,10.8H80.8c-13.3,0-24.2,10.9-24.2,24.2v60.4c0,6.7,5.4,12.1,12.1,12.1h12.1v145c0,13.3,10.9,24.2,24.2,24.2
			H395c13.3,0,24.2-10.9,24.2-24.2v-145h12.1c6.7,0,12.1-5.4,12.1-12.1v-60.4C443.4,176,432.5,165.2,419.2,165.2z M160.9,100.3
			c4.9-4.9,11.4-7.6,18.3-7.6c6.9,0,13.4,2.7,18.3,7.6c16.3,16.4,32.5,58.3,26.9,64.1c0,0-1,0.8-4.5,0.8c-16.7,0-48.6-17.4-59-27.8
			C150.8,127.1,150.8,110.5,160.9,100.3z M237.9,406.9H105v-145h132.9V406.9z M237.9,237.7H80.8v-48.3h139.1h18V237.7z M302.5,100.3
			c9.8-9.8,26.8-9.8,36.6,0c10.1,10.2,10.1,26.8,0,37c-10.4,10.5-42.3,27.8-59,27.8c-3.5,0-4.5-0.8-4.5-0.8
			C270,158.5,286.2,116.7,302.5,100.3z M395,406.9H262.1v-145H395V406.9z M419.2,237.7H262.1v-48.3h18h139.1V237.7z"/>
	</g>
</g>
</svg>
