<?xml version="1.0" encoding="utf-8"?>
<!-- Generator: Adobe Illustrator 24.0.3, SVG Export Plug-In . SVG Version: 6.00 Build 0)  -->
<svg version="1.1" id="Layer_1" xmlns="http://www.w3.org/2000/svg" xmlns:xlink="http://www.w3.org/1999/xlink" x="0px" y="0px"
	 viewBox="0 0 500 500" style="enable-background:new 0 0 500 500;" xml:space="preserve">
<style type="text/css">
	.st0{fill:#FFFFFF;}
</style>
<path class="st0" d="M380.8,250c0-72.1-58.7-130.8-130.8-130.8S119.2,177.9,119.2,250c0,34,13,65,34.3,88.2l-27.8,27.8
	c-4.1,4.1-1.1,11,4.5,11c1.6,0,3.3-0.6,4.5-1.9l27.9-27.9c23.3,21,54,33.6,87.4,33.6C322.1,380.8,380.8,322.1,380.8,250L380.8,250z
	 M313.1,243.6h-56.7V138C274.3,152.1,310.5,187.5,313.1,243.6z M243.6,132.2v111.4h-56.7c1.8-38.8,20-67.5,35.4-85.2
	c2.3-2.7,2.1-6.7-0.6-9.1c-2.7-2.3-6.7-2.1-9.1,0.6c-16.9,19.3-36.8,50.9-38.6,93.6h-41.8C135.4,183.6,183.6,135.4,243.6,132.2z
	 M132.2,256.4H174c2.3,54.5,33.7,91.2,54.5,109.6C176.1,356.4,135.2,311.6,132.2,256.4z M186.9,256.4h56.7v105.5
	C211.8,336.7,188.9,299.7,186.9,256.4z M256.4,367.8V256.4h56.7c-1.9,40.1-21.2,69.6-37.6,87.6c-2.4,2.6-2.2,6.7,0.4,9.1
	c2.6,2.4,6.7,2.2,9.1-0.4c17.9-19.7,39.1-52,41-96.3h20.3c3.5,0,6.4-2.9,6.4-6.4c0-3.5-2.9-6.4-6.4-6.4H326
	c-2.3-54.5-33.7-91.2-54.5-109.6c54.8,10.1,96.5,58.3,96.5,116C368,312.9,318.5,364.5,256.4,367.8L256.4,367.8z M394.4,386.1
	L363.3,355c-2.5-2.5-6.6-2.5-9.1,0c-2.5,2.5-2.5,6.6,0,9.1l31.3,31.3c-12.8,20.5,2,47.2,26.2,47.2c17,0,30.9-13.9,30.9-30.9
	C442.6,386.9,414.8,372.3,394.4,386.1L394.4,386.1z M411.7,429.8c-10,0-18.1-8.1-18.1-18.1c0-10,8.1-18.1,18.1-18.1
	c10,0,18.1,8.1,18.1,18.1C429.8,421.7,421.7,429.8,411.7,429.8z M104.6,114.5l31.3,31.3c2.5,2.5,6.6,2.5,9.1,0
	c2.5-2.5,2.5-6.6,0-9.1l-31.1-31.1c13.8-20.4-0.8-48.2-25.6-48.2c-17,0-30.9,13.9-30.9,30.9C57.4,112.5,84.1,127.3,104.6,114.5z
	 M88.3,70.2c10,0,18.1,8.1,18.1,18.1s-8.1,18.1-18.1,18.1s-18.1-8.1-18.1-18.1S78.3,70.2,88.3,70.2z M88.3,380.8
	c-17,0-30.9,13.9-30.9,30.9c0,17,13.9,30.9,30.9,30.9s30.9-13.9,30.9-30.9C119.2,394.7,105.3,380.8,88.3,380.8z M88.3,429.8
	c-10,0-18.1-8.1-18.1-18.1c0-10,8.1-18.1,18.1-18.1s18.1,8.1,18.1,18.1C106.3,421.7,98.2,429.8,88.3,429.8z M363.3,145l31.1-31.1
	c20.4,13.8,48.2-0.8,48.2-25.6c0-17-13.9-30.9-30.9-30.9c-24.2,0-39,26.8-26.2,47.2l-31.3,31.3c-2.5,2.5-2.5,6.6,0,9.1
	C356.7,147.5,360.8,147.5,363.3,145z M411.7,70.2c10,0,18.1,8.1,18.1,18.1s-8.1,18.1-18.1,18.1c-10,0-18.1-8.1-18.1-18.1
	S401.8,70.2,411.7,70.2z"/>
</svg>
