<?xml version="1.0" encoding="utf-8"?>
<!-- Generator: Adobe Illustrator 24.0.3, SVG Export Plug-In . SVG Version: 6.00 Build 0)  -->
<svg version="1.1" id="Layer_1" xmlns="http://www.w3.org/2000/svg" xmlns:xlink="http://www.w3.org/1999/xlink" x="0px" y="0px"
	 viewBox="0 0 500 500" style="enable-background:new 0 0 500 500;" xml:space="preserve">
<style type="text/css">
	.st0{fill:#FFFFFF;}
</style>
<g>
	<path class="st0" d="M142.3,142.5c14.5-67.4,52.2-102.3,109.5-101.7c55.3,0.5,93.2,36.7,106.2,101.9c31.8,3,58.9,15.9,78.9,41.6
		c15,19.2,22.5,41.1,22.4,65.6c-0.2,56.4-33.5,92-101.4,108.1c-13.9,65.8-52,101.5-108.2,101.3c-55.7-0.2-93.4-35.7-107.5-102
		c-33-3.1-60.8-17-80.8-44.3c-14.9-20.3-21.7-43.3-20.5-68.4C42.8,201.8,73,150.1,142.3,142.5z M228.9,252.9
		c-45.4-11.6-73.1-40.4-84.5-84.6c-45.8,2.3-80.4,39.7-78.6,84.3c1.8,45.3,39.4,80.8,84.1,79.4C193.2,330.7,229.8,294.4,228.9,252.9
		z M169,355.4c-0.1,44.1,39.1,80.5,83.7,79c46.3-1.5,81.9-40.8,79.3-87.4c-2.3-41.9-41-79.1-79-75.4
		C241.7,315.8,213.6,343.6,169,355.4z M271.6,247.3c26.5,5.8,47.5,19.8,65.5,41.9c5.8-7.6,10.5-13.9,15.2-20.1
		c-0.6-0.7-1.2-1.4-1.8-2.1c-8.5,6.7-18.3,10.1-26.4,2.1c-4.4-4.3-7.3-12.5-7.1-18.8c0.4-11.3,10-14.7,20.7-16.2
		c-5.3-10.9-4.7-20.7,5.4-28c7.2-5.2,15.1-5.2,22.3,0.2c10,7.5,10.1,17.3,4.6,28.1c10.7,0.7,19.8,4.1,21,14.6
		c0.7,6.3-1.6,14.7-5.8,19.3c-8.4,9.3-18.7,5.1-28-1.3c-0.7,1-1.4,2-2.2,3c6.8,7.3,13.5,14.5,21,22.6c-11.5,0-23.4,0-35.3,0
		c5.6,13.8,10.6,26.2,15.6,38.6c41,1.4,78-36.5,78.1-80.6c0.2-46-37.4-83.2-83.2-82.5C307.7,168.5,269.6,205.9,271.6,247.3z
		 M331.3,144.6c1.1-42.1-37.2-79-81.1-79.1c-45.9,0-83.1,37.9-82,83.6c1.1,43.9,38.1,81.4,79,79.4
		C258.5,184.5,286.3,156.3,331.3,144.6z"/>
	<path class="st0" d="M147.1,310.1c-12.1-33.5-17.8-41.4-40.3-56c22.2-11.3,32.7-30.8,39.3-54.1c5.3,11.1,9.4,21.4,15.1,30.8
		c5.7,9.6,13,18.3,19.2,26.9C164.7,265.5,154.4,285.3,147.1,310.1z"/>
	<path class="st0" d="M277,397.1c-17.5,0-32.3,0-46.6,0c6.8-7.5,13.8-15.3,20.9-23.1c-0.9-0.9-1.7-1.8-2.6-2.6
		c-2.5,1.6-4.9,3.5-7.5,4.7c-9.1,4-17.2,2.2-23.4-5.5c-6.2-7.8-5.9-16.5,0.5-23.9c11.3-13,23.2-25.4,33.9-37.1
		c9,10,18.5,21.3,28.8,31.8c10.5,10.7,12.6,20.6,5.1,29.5c-7.8,9.4-18,9.4-31.4-0.6C256,383.7,265.6,389.8,277,397.1z"/>
	<path class="st0" d="M248.6,190.5c-9.1-10.3-19.2-21.6-29.1-33c-4.2-4.9-8.7-9.9-11.6-15.6c-5.3-10.2-1.8-22,7.1-27.9
		c9.4-6.2,21.7-4.1,29.3,4.9c1.4,1.7,2.5,3.6,4.2,6c1.6-2,3-3.8,4.4-5.6c7.3-9,18.7-11.5,28.2-6.1c9.4,5.3,13.5,16.7,9.1,27.3
		c-1.9,4.6-4.9,8.9-8.2,12.7C270.6,166.2,259,178.9,248.6,190.5z"/>
</g>
</svg>
